<svg width="2481" height="2073" xmlns="http://www.w3.org/2000/svg">
 <title>orange pin</title>
 <defs>
  <filter x="-50%" y="-50%" height="200%" width="200%" id="svg_3_blur">
   <feGaussianBlur stdDeviation="7.7"/>
  </filter>
 </defs>
 <g>
  <title>Layer 1</title>
  <path d="m730.94,1838.29667c-38.76599,-190.30004 -107.11603,-348.67004 -189.90301,-495.44006c-61.40698,-108.86999 -132.54398,-209.35998 -198.36399,-314.93994c-21.97201,-35.24298 -40.93399,-72.47601 -62.04699,-109.05298c-42.21601,-73.13702 -76.444,-157.935 -74.26901,-267.93201c2.125,-107.47302 33.208,-193.68402 78.02999,-264.17202c73.719,-115.935 197.20102,-210.98899 362.88401,-235.969c135.466,-20.42399 262.47497,14.082 352.54303,66.748c73.59601,43.03801 130.59601,100.527 173.91595,168.28002c45.21997,70.716 76.35999,154.25998 78.96997,263.23196c1.34009,55.83002 -7.79992,107.53204 -20.67993,150.41803c-13.03003,43.409 -33.98999,79.69501 -52.64001,118.45398c-36.41004,75.659 -82.05005,144.98401 -127.85999,214.34399c-136.43701,206.60999 -264.49603,417.31006 -320.58002,706.03003z" stroke-width="37" stroke-miterlimit="10" fill-rule="evenodd" fill="#ff0000" clip-rule="evenodd" id="svg_2"/>
  <circle r="183.33299" cy="648.38033" cx="729.546" fill-rule="evenodd" fill="#000000" clip-rule="evenodd" id="svg_4"/>
  <path filter="url(#svg_3_blur)" d="m731.37903,1838.95544c131.60394,-120.86999 211.31396,-235.97998 269.14099,-350.48999c42.89001,-84.95007 70.54004,-169.17004 106.94995,-254.06006c12.16003,-28.33996 28.51001,-56.56994 42.52002,-85.29992c28.02002,-57.45008 72.66003,-118.14002 169.03003,-178.10004c94.16003,-58.58996 193.94995,-93.75598 291.57995,-114.69696c160.56006,-34.44202 344.28003,-37.29901 502.58997,15.59302c129.44995,43.24396 204.68018,113.46393 233.78003,178.86389c23.78003,53.44006 21.42993,108.18006 -1.04004,163.09998c-23.45996,57.32007 -69.56982,116.07007 -161.10986,177.39001c-46.90015,31.42005 -98.90015,56.34009 -146.41004,74.87c-48.09008,18.76001 -96.59997,30.39001 -145.33007,44.32007c-95.12,27.18994 -192.41993,47.15002 -289.89002,67.07995c-290.31995,59.33997 -577.25,124.32007 -871.81091,261.43006l0,-0.00001z" fill-rule="evenodd" fill="black" clip-rule="evenodd" opacity="0.25" id="svg_3"/>
 </g>
</svg>